<?xml version="1.0" standalone="no"?>
<!DOCTYPE svg PUBLIC "-//W3C//DTD SVG 20010904//EN"
 "http://www.w3.org/TR/2001/REC-SVG-20010904/DTD/svg10.dtd">
<svg version="1.0" xmlns="http://www.w3.org/2000/svg"
 width="225.000000pt" height="225.000000pt" viewBox="0 0 225.000000 225.000000"
 preserveAspectRatio="xMidYMid meet">
<metadata>
Created by potrace 1.14, written by Peter Selinger 2001-2017
</metadata>
<g transform="translate(0.000000,225.000000) scale(0.100000,-0.100000)"
fill="#000000" stroke="none">
<path d="M1050 1955 l0 -85 -33 0 c-103 0 -284 -73 -405 -165 l-72 -54 0 33
c0 19 7 39 15 46 24 20 18 32 -33 83 l-48 47 -89 -90 -89 -90 48 -49 c46 -46
51 -49 70 -35 11 7 35 14 53 14 l32 0 -59 -82 c-112 -156 -155 -291 -154 -488
0 -152 14 -217 70 -338 240 -522 930 -657 1346 -264 164 155 250 336 265 554
13 204 -45 392 -174 561 l-44 57 37 0 c21 0 46 -7 57 -17 18 -17 20 -16 63 29
24 26 44 51 44 55 0 5 -40 48 -88 96 l-88 87 -48 -49 c-49 -50 -49 -50 -32
-76 10 -14 16 -40 14 -57 l-3 -31 -44 37 c-104 87 -250 154 -391 178 l-70 12
0 83 0 83 -75 0 -75 0 0 -85z m232 -180 c150 -31 269 -97 383 -210 146 -146
215 -312 215 -520 0 -137 -22 -233 -80 -345 -174 -333 -572 -488 -929 -362
-116 41 -185 86 -281 182 -98 98 -140 164 -183 287 -40 115 -49 270 -22 390
63 290 290 514 585 577 85 19 228 19 312 1z"/>
<path d="M1090 1407 l0 -284 -37 -24 c-48 -32 -77 -88 -69 -134 8 -40 47 -90
87 -111 16 -8 29 -20 29 -27 0 -7 6 -22 14 -33 14 -18 15 -18 28 13 8 18 29
43 48 55 101 69 102 179 2 243 l-31 20 -1 283 0 282 -35 0 -35 0 0 -283z"/>
</g>
</svg>
